<?xml version="1.0" ?><svg viewBox="0 0 100 100" xmlns="http://www.w3.org/2000/svg"><title/><g data-name="Layer 2" id="23f40e0b-2e9f-455d-9e6c-c2ec1aca88c8"><circle cx="50" cy="50" fill="#e6e6e6" r="49.5"/></g><g data-name="Layer 1" id="23970370-515e-4876-9704-6b6b8b5fd084"><path d="M73.31,79.72H30.14a2.54,2.54,0,1,1,0-5.08v-.0014h42.0257a2,2,0,0,0,2-2V18.4823a2,2,0,0,0-2-2H30.14V16.48h-.92l-.02295.00232h-.05621V16.488A3.38849,3.38849,0,0,0,25.83,19.87V78.51a3.38432,3.38432,0,0,0,3.39,3.38H73.31a.85785.85785,0,0,0,.86-.85v-.46A.86641.86641,0,0,0,73.31,79.72Z" fill="#10556b"/><path d="M71.63,74.64v5.08H30.14a2.54,2.54,0,1,1,0-5.08Z" fill="#fff"/><path d="M62.47307,91.37784,59.01948,88.94a.75684.75684,0,0,0-.87291,0L54.693,91.37784a.75684.75684,0,0,1-1.1933-.61831V76.82693H63.66636v13.9326A.75684.75684,0,0,1,62.47307,91.37784Z" fill="#ffab80"/><path d="M30.14078,16.48231H72.16571a2,2,0,0,1,2,2V72.63862a2,2,0,0,1-2,2H30.14078a0,0,0,0,1,0,0V16.48231A0,0,0,0,1,30.14078,16.48231Z" fill="#2b687f"/><path d="M63.509,33.11914H40.79753a1.5,1.5,0,0,1,0-3H63.509a1.5,1.5,0,0,1,0,3Z" fill="#fff"/><path d="M63.509,40.08887H40.79753a1.5,1.5,0,0,1,0-3H63.509a1.5,1.5,0,0,1,0,3Z" fill="#fff"/><path d="M57.34587,47.05859H40.79753a1.5,1.5,0,0,1,0-3H57.34587a1.5,1.5,0,0,1,0,3Z" fill="#fff"/></g></svg>